<svg width="200" height="200" viewBox="240 30 200 200" xmlns="http://www.w3.org/2000/svg">
  <defs>
    <linearGradient id="g1" x1="0%" y1="0%" x2="100%" y2="100%">
      <stop offset="0%" stop-color="#F0EAF8"/>
      <stop offset="45%" stop-color="#C4A8E8"/>
      <stop offset="100%" stop-color="#9B6FD4"/>
    </linearGradient>
    <linearGradient id="g2" x1="0%" y1="0%" x2="100%" y2="100%">
      <stop offset="0%" stop-color="#9B6FD4" stop-opacity="0.6"/>
      <stop offset="100%" stop-color="#C47FA8" stop-opacity="0.2"/>
    </linearGradient>
    <linearGradient id="gstroke" x1="0%" y1="0%" x2="100%" y2="100%">
      <stop offset="0%" stop-color="#D4C8E8"/>
      <stop offset="100%" stop-color="#9B6FD4"/>
    </linearGradient>
  </defs>
  <rect x="240" y="30" width="200" height="200" rx="32" fill="#130D1C" stroke="url(#gstroke)" stroke-width="1.2"/>
  <rect x="244" y="34" width="192" height="192" rx="30" fill="none" stroke="#9B6FD4" stroke-width="0.4" opacity="0.4"/>
  <circle cx="340" cy="130" r="78" fill="url(#g2)"/>
  <text x="340" y="172" font-family="'Playfair Display', Georgia, serif" font-size="108" font-weight="600" text-anchor="middle" fill="url(#g1)" letter-spacing="-4">JS</text>
  <line x1="270" y1="220" x2="410" y2="220" stroke="url(#gstroke)" stroke-width="0.8" opacity="0.5"/>
  <circle cx="268" cy="220" r="2.5" fill="#C4A8E8" opacity="0.7"/>
  <circle cx="412" cy="220" r="2.5" fill="#C4A8E8" opacity="0.7"/>
  <circle cx="340" cy="220" r="1.8" fill="#9B6FD4" opacity="0.9"/>
  <circle cx="240" cy="30" r="3.5" fill="none" stroke="#9B6FD4" stroke-width="0.8" opacity="0.5"/>
  <circle cx="440" cy="30" r="3.5" fill="none" stroke="#9B6FD4" stroke-width="0.8" opacity="0.5"/>
  <circle cx="240" cy="230" r="3.5" fill="none" stroke="#C47FA8" stroke-width="0.8" opacity="0.5"/>
  <circle cx="440" cy="230" r="3.5" fill="none" stroke="#C47FA8" stroke-width="0.8" opacity="0.5"/>
  <text x="340" y="282" font-family="'Outfit', system-ui, sans-serif" font-size="11" font-weight="400" text-anchor="middle" fill="#9B6FD4" letter-spacing="5" opacity="0.8">JEWELS</text>
  <text x="296" y="282" font-family="serif" font-size="8" fill="#C47FA8" opacity="0.5">✦</text>
  <text x="378" y="282" font-family="serif" font-size="8" fill="#C47FA8" opacity="0.5">✦</text>
</svg>